<?xml version="1.0" encoding="utf-8"?>
<!-- Generator: Adobe Illustrator 24.0.1, SVG Export Plug-In . SVG Version: 6.00 Build 0)  -->
<svg version="1.1" id="图层_1" xmlns="http://www.w3.org/2000/svg" xmlns:xlink="http://www.w3.org/1999/xlink" x="0px" y="0px"
	 viewBox="0 0 180 24.8" style="enable-background:new 0 0 180 24.8;" xml:space="preserve">
<style type="text/css">
	.st0{fill:#171818;}
	.st1{opacity:0.87;fill:#FCFCF6;}
	.st2{fill:#FFFFFF;}
	.st3{font-family:'Futura-Bold';}
	.st4{font-size:3.2287px;}
	.st5{font-family:'FZLTDHJW--GB1-0';}
	.st6{font-size:5.0115px;}
</style>
<rect x="2.9" y="1.4" class="st0" width="40.3" height="13.9"/>
<path class="st1" d="M9.6,2.8C6.4,3.4,3.8,5,4,7c0.3,3,12.1,1.8,12.4-0.7C16.6,4.3,13.8,1.9,9.6,2.8z"/>
<path class="st1" d="M10.2,5.3c-1.6,0.6-4.1,5.5-1.8,7.7c2,1.9,4.7,1.3,5.4-0.2C14.8,10.5,12.4,4.5,10.2,5.3z"/>
<text transform="matrix(1 0 0 1 17.7788 13.0619)" class="st2 st3 st4">MushBox</text>
<text transform="matrix(1 0 0 1 3.5799 20.3869)" class="st3 st4">Mushroom Illustrated Guide</text>
<g>
	<text transform="matrix(1 0 0 1 18.251 7.6781)" class="st2 st5 st6">蘑菇图鉴</text>
</g>
</svg>
