<?xml version="1.0" encoding="utf-8"?>
<!-- Generator: Adobe Illustrator 24.0.1, SVG Export Plug-In . SVG Version: 6.00 Build 0)  -->
<svg version="1.1" id="图层_1" xmlns="http://www.w3.org/2000/svg" xmlns:xlink="http://www.w3.org/1999/xlink" x="0px" y="0px"
	 viewBox="0 0 113 17.2" style="enable-background:new 0 0 113 17.2;" xml:space="preserve">
<style type="text/css">
	.st0{display:none;}
	.st1{display:inline;fill:#FFD4AC;}
	.st2{display:inline;fill:#4E4E4E;}
	.st3{display:inline;}
	.st4{clip-path:url(#SVGID_2_);}
	.st5{fill:#4E4E4E;}
	.st6{display:inline;fill:none;}
	.st7{opacity:0.8;fill:#FF3956;enable-background:new    ;}
	.st8{font-family:'Futura-Bold';}
	.st9{font-size:4.2935px;}
	.st10{font-family:'FZCDXJW--GB1-0';}
	.st11{font-size:6.0305px;}
</style>
<g id="图层_1_1_" class="st0">
	<path class="st1" d="M35.5,20h75c1.4,0,2.5,1.1,2.5,2.5l0,0c0,1.4-1.1,2.5-2.5,2.5h-75c-1.4,0-2.5-1.1-2.5-2.5l0,0
		C33,21.1,34.1,20,35.5,20z"/>
	<path class="st2" d="M47.7,11.5c0,3,0.3,5.2,0.9,6.5c0.6,1.4,1.7,2.3,3.4,2.9c1.7,0.5,4.4,0.9,8.1,1.2l-0.6,3
		c-4.2-0.4-7.2-0.9-9-1.5s-3.1-1.8-4-3.6c-0.8-1.8-1.2-4.6-1.2-8.5V5.4c-0.3,0.1-0.7,0.2-1.1,0.2v18.9h-2.3V6.1
		c-0.2,0-0.6,0.1-1.2,0.2v5.5c0,2.9-0.1,5.4-0.4,7.4c-0.3,2-0.7,4-1.2,5.9l-2.5-1.8c0.6-1.9,1.1-3.6,1.3-5.2
		c0.3-1.6,0.4-3.7,0.4-6.3V3.7c1.5-0.2,3.2-0.4,4.8-0.7c1.7-0.3,3.3-0.7,4.9-1.1l0.8,2.7l-1,0.3v6.6H47.7z M52.2,19.8
		c-0.7,0-1.3-0.2-1.7-0.4c-0.4-0.2-0.7-0.5-1-1c-0.2-0.5-0.3-1.1-0.3-1.9V3.3H59v9.6h-7.4v2.8c0,0.4,0,0.6,0.1,0.8s0.2,0.3,0.4,0.4
		S52.6,17,53,17c0.5,0,1.1,0.1,1.7,0.1c0.5,0,1,0,1.5-0.1s0.8-0.1,1-0.3c0.1-0.1,0.2-0.5,0.2-1c0-0.8,0-1.5,0-1.9l2.5,0.5
		c0,0.6,0,1.4-0.1,2.4c-0.1,1.1-0.3,1.8-0.8,2.3c-0.4,0.5-1.1,0.7-2.2,0.8c-0.8,0.1-1.5,0.1-2.3,0.1S53,19.8,52.2,19.8z M53.1,10.3
		V6h-1.5v4.3H53.1z M55.2,10.3h1.4V6h-1.4V10.3z M62,7.6C63,7,64,6.1,65.2,5s2.1-2.2,2.9-3.2l2.3,2c-0.8,1.1-1.9,2.2-3.2,3.4
		s-2.5,2.3-3.6,3.2L62,7.6z M72.1,3.2H84v2.9H72.1V3.2z M70.4,10c-0.6,0.9-1.3,1.9-2.2,3v12h-3v-8.8c-0.9,0.9-1.6,1.6-2.2,2.1
		l-1.3-2.9c1.2-1,2.3-2.2,3.5-3.5s2.2-2.6,3-3.8L70.4,10z M84.9,10.3v2.9h-3.7v8c0,1.3-0.3,2.2-0.8,2.8c-0.6,0.6-1.5,0.9-2.8,0.9
		c-1.1,0-2.3,0-3.4-0.1l-0.6-3c1.2,0.2,2.3,0.2,3.3,0.2c0.5,0,0.8-0.1,1-0.3c0.2-0.2,0.3-0.6,0.3-1.2v-7.1H71v-2.9h13.9V10.3z
		 M95.5,3h13.6v18.8c0,0.8-0.1,1.5-0.3,1.9c-0.2,0.5-0.6,0.8-1.1,1s-1.2,0.3-2,0.3c-0.4,0-1,0-1.9-0.1l-0.5-2.7
		c0.7,0.1,1.3,0.2,1.9,0.2c0.5,0,0.9-0.1,1-0.3s0.2-0.6,0.2-1.1v-1.2l-1.8,1.1c-0.1-0.2-0.2-0.3-0.2-0.5s-0.1-0.3-0.2-0.4
		c-0.2-0.5-0.5-1-0.8-1.5s-0.5-1.1-0.8-1.6c-0.9,1.6-1.8,3.1-2.7,4.5l-1.8-1.5V25h-2.7V8.3c-0.6,1.2-1.3,2.6-2.2,4.1
		c-0.9,1.5-1.5,2.5-1.9,3l2.9-0.8v2.9c-1.6,0.3-3.4,0.6-5.3,1.1l-1.1,0.3l-0.6-2.8c0.2-0.1,0.5-0.3,0.7-0.4c0.2-0.2,0.4-0.5,0.7-0.9
		c0.7-1.1,1.3-2,1.7-2.8c-0.3,0-1,0.2-2,0.3c-0.6,0.1-0.9,0.2-1,0.2l-0.6-2.7c0.2-0.1,0.3-0.2,0.4-0.3c0.1-0.2,0.3-0.3,0.4-0.5
		c0.3-0.4,0.7-1.3,1.4-2.8c0.7-1.4,1.2-2.8,1.7-4l2.6,1c-0.4,1-1,2.1-1.6,3.4s-1.2,2.2-1.5,2.8L92,9.1c0.6-1.1,1-1.9,1.3-2.6
		l2.2,1.1V3z M106.4,5.7h-8.2V8l2-1.2l2.3,4.3c0.7-1.5,1.3-2.9,1.8-4.3l2,0.8L106.4,5.7L106.4,5.7z M98.2,18.8
		c0.9-1.4,1.9-3,2.9-4.9c-1.2-2.3-2.2-4.1-2.9-5.4V18.8z M104,14c1.1,2.1,1.9,3.6,2.3,4.5V8.6C105.7,10.4,104.9,12.2,104,14z
		 M86.8,21.1c1-0.2,2.4-0.5,4.3-0.9s3.1-0.7,3.5-0.8l0.2,3l-7.6,1.7L86.8,21.1z"/>
	<g class="st3">
		<g>
			<g>
				<defs>
					<rect id="SVGID_1_" y="0" width="26" height="25.5"/>
				</defs>
				<clipPath id="SVGID_2_">
					<use xlink:href="#SVGID_1_"  style="overflow:visible;"/>
				</clipPath>
				<g class="st4">
					<path class="st5" d="M13,8.9c3.5,0,3.5-3.1,3.5-4.3c0-2.1-1.7-4.3-3.5-4.3c-1.7,0-3.5,2.1-3.5,4.3C9.6,5.9,9.6,8.9,13,8.9z
						 M23.4,8.9c-0.7,0-1.5,0.2-2.2,0.5C21,9.5,20.8,9.8,20.9,10c0.3,0.7,0.5,1.5,0.6,2.5c0,0.1,0.1,0.3,0.2,0.3
						c0.1,0.1,0.2,0.1,0.3,0.1l0,0l3.5-0.9c0.3-0.1,0.3-0.3,0.3-0.5C25.8,10.6,25.1,8.9,23.4,8.9z M20.5,19.7
						c-0.2-0.1-0.4-0.1-0.6,0.1c-0.7,0.9-1.5,1.5-2.4,2.1c-0.1,0.1-0.2,0.3-0.2,0.3c0,0.2,0.1,0.3,0.2,0.3c4.1,2.5,4.4,2.5,4.6,2.5
						c0.3,0,0.4-0.2,0.4-0.4C22.6,22.5,21.8,20.6,20.5,19.7z M14.1,23.3c-0.8,0.2-1.3,0.2-2.1,0c-0.2,0-0.3,0-0.4,0.2
						c-0.1,0.2-0.2,0.3-0.1,0.4c0.3,1.1,1.1,1.3,1.6,1.3c0.4,0,1.2-0.2,1.6-1.3c0.1-0.2,0-0.3-0.1-0.4
						C14.4,23.3,14.3,23.2,14.1,23.3z M6.2,19.8c-0.2-0.3-0.4-0.3-0.6-0.1c-1.3,0.9-2.1,2.7-2.1,4.9c0,0.3,0.2,0.4,0.4,0.4
						c0.2,0,0.5,0,4.6-2.5c0.1-0.1,0.2-0.3,0.2-0.3c0-0.2-0.1-0.3-0.2-0.3C7.7,21.4,6.8,20.6,6.2,19.8z M4.1,12.8
						c0.1,0,0.2,0,0.3-0.1c0.1-0.1,0.2-0.2,0.2-0.3c0.1-0.9,0.3-1.7,0.6-2.5c0.1-0.2,0-0.4-0.3-0.5C4.1,9.1,3.3,8.9,2.6,8.9
						C1,8.9,0.2,10.6,0,11.4c0,0.3,0.1,0.4,0.3,0.5l3.5,0.9C3.8,12.8,4.1,12.8,4.1,12.8z M14.9,16.6l1-2.1l-1-2.1h-3.8l-1,2.1l1,2.1
						H14.9z M16.8,14h4.1c-0.1-2.8-0.8-4.7-2.2-5.9l-2.9,3.7L16.8,14z M10.4,12L7.5,8.2C6,9.4,5.4,11.2,5.3,14h4.1L10.4,12z"/>
					<path class="st5" d="M15,11.5l2.9-3.8l-0.5-0.3c-0.1-0.1-0.3-0.1-0.3,0c-0.1,0-0.2,0.1-0.3,0.3c-0.7,1.4-1.9,2.1-3.8,2.1
						S9.9,9.1,9.2,7.7L8.9,7.4H8.6c0,0.1-0.2,0.2-0.3,0.3l2.9,3.8H15z M11.1,17.4l-1.9,3.8c1.6,0.9,3.1,1.3,3.8,1.3s2.3-0.3,3.8-1.3
						l-1.9-3.8H11.1z M20.8,14.9h-4.1l-1,2.1l1.9,3.7C19.3,19.6,20.7,17.7,20.8,14.9z M5.3,14.9c0.2,2.8,1.6,4.7,3.2,5.9l1.9-3.7
						L9.3,15L5.3,14.9L5.3,14.9z"/>
				</g>
			</g>
		</g>
	</g>
	<rect x="38.4" y="6.9" class="st6" width="79.2" height="2"/>
</g>
<g id="图层_2_1_">
	<text transform="matrix(1 0 0 1 21.877 12.1617)" class="st7 st8 st9">MushBox</text>
	<path class="st7" d="M12.3,4.5C10.4,4.9,8.9,5.8,9,7c0.2,1.8,7.2,1.1,7.3-0.4C16.4,5.4,14.8,4,12.3,4.5z"/>
	<path class="st7" d="M12.7,6c-1,0.3-2.4,3.2-1.1,4.5c1.2,1.1,2.8,0.8,3.2-0.1C15.4,9,13.9,5.5,12.7,6z"/>
	<text transform="matrix(1 0 0 1 19.5303 9.1866)" class="st10 st11">剧毒类</text>
</g>
</svg>
