<svg id="图层_1" data-name="图层 1" xmlns="http://www.w3.org/2000/svg" viewBox="0 0 1168 1114"><defs><style>.cls-1{fill:#3f1163;}</style></defs><title>截屏2024-06-18 20.37.26的副本</title><path class="cls-1" d="M-.06,552.87v557h1166V-4.13H-.06Zm685.8-307.5c82.8,8.7,151.8,50,180.6,108.1,8,16.2,12.6,34.9,12.6,51.3,0,15.7-3.9,25.4-15,37.4-19.5,21.1-56.8,39.7-110,54.8-10.2,2.8-18.6,5.3-18.7,5.4s1.7,5.7,4.2,12.4a464.83,464.83,0,0,1,19.9,71.6c7.4,38.4,7.6,77.7.6,103.4-10.6,38.6-44.9,67.3-93,77.7-13.2,2.9-47.5,2.7-62.6-.3-15.4-3.2-27.7-7.4-43.2-14.8-29.4-14.2-56.1-36.1-70.7-57.9-25.8-38.9-31.1-93.1-15-156.1,1.8-7.2,3.1-13.3,2.8-13.8s-2.3-.7-4.6-.7-10.1-.7-17.2-1.5c-83-9.6-131.5-33.8-141-70.2-2.1-8.1-1.9-26.6.4-37.8,10.5-51,63-97.7,147.6-131.5,44.4-17.7,103.2-32.7,147.5-37.4C628.64,243.57,667.64,243.47,685.74,245.37Z"/></svg>